<svg xmlns="http://www.w3.org/2000/svg" version="1.1" xmlns:xlink="http://www.w3.org/1999/xlink" width="200" height="200"><svg xmlns="http://www.w3.org/2000/svg" version="1.1" xmlns:xlink="http://www.w3.org/1999/xlink" viewBox="0 0 200 200"><rect width="200" height="200" fill="url('#gradient')"></rect><defs><linearGradient id="SvgjsLinearGradient1001" gradientTransform="rotate(80 0.5 0.5)"><stop offset="0%" stop-color="#000000"></stop><stop offset="100%" stop-color="#000000"></stop></linearGradient></defs><g><g fill="#fcf8f4" transform="matrix(2.834820055367579,0,0,2.834820055367579,6.958940061595911,120.14577065347268)" stroke="#ff21e9" stroke-width="0.75"><path d="M1.07-14.22L5.58-14.22L8.75-4.33L11.91-14.22L16.43-14.22L16.43 0L12.99 0L12.99-3.32L13.32-10.12L9.88 0L7.62 0L4.17-10.13L4.50-3.32L4.50 0L1.07 0L1.07-14.22ZM27.42-8.57L27.42-6.03L22.03-6.03L22.03-2.64L28.40-2.64L28.40 0L18.60 0L18.60-14.22L28.42-14.22L28.42-11.57L22.03-11.57L22.03-8.57L27.42-8.57ZM41.84-7.47L41.84-6.82Q41.84-4.74 41.06-3.13Q40.29-1.53 38.87-0.67Q37.45 0.20 35.63 0.20Q33.82 0.20 32.41-0.64Q31.01-1.47 30.22-3.03Q29.43-4.58 29.39-6.59L29.39-6.59L29.39-7.39Q29.39-9.48 30.16-11.08Q30.93-12.68 32.36-13.54Q33.79-14.41 35.62-14.41L35.62-14.41Q37.42-14.41 38.84-13.55Q40.25-12.70 41.04-11.11Q41.83-9.52 41.84-7.47L41.84-7.47ZM38.35-6.76L38.35-7.41Q38.35-9.53 37.64-10.63Q36.93-11.73 35.62-11.73L35.62-11.73Q33.04-11.73 32.89-7.86L32.89-7.86L32.88-6.82Q32.88-4.73 33.57-3.60Q34.27-2.48 35.63-2.48L35.63-2.48Q36.93-2.48 37.64-3.58Q38.34-4.69 38.35-6.76L38.35-6.76ZM52.64-14.22L54.62-5.30L56.25-14.22L59.65-14.22L56.63 0L53.08 0L51.17-8.11L49.31 0L45.76 0L42.73-14.22L46.14-14.22L47.77-5.30L49.73-14.22L52.64-14.22ZM64.52-14.22L64.10-4.50L61.44-4.50L61.02-14.22L64.52-14.22ZM60.92-1.47L60.92-1.47Q60.92-2.20 61.44-2.66Q61.96-3.13 62.74-3.13Q63.53-3.13 64.05-2.66Q64.57-2.20 64.57-1.47Q64.57-0.75 64.05-0.29Q63.53 0.18 62.74 0.18Q61.96 0.18 61.44-0.29Q60.92-0.75 60.92-1.47Z"></path></g></g></svg><style>@media (prefers-color-scheme: light) { :root { filter: none; } }
@media (prefers-color-scheme: dark) { :root { filter: none; } }
</style></svg>